<svg width="229" height="219" viewBox="0 0 229 219" fill="none" xmlns="http://www.w3.org/2000/svg">
<g clip-path="url(#clip0_2_235)">
<path d="M15.8 220.9C5.30001 219.4 -3.29999 212.9 -7.79999 203.1L-10.3 197.6L-9.69999 101.1C-8.99999 -6.1 -9.29999 -0.700001 -2.29999 -9C-0.0999876 -11.6 3.80001 -14.4 7.40001 -16.1L13.5 -19H109.6C218.1 -19 212 -19.4 221 -11.3C227.9 -5.1 230.2 0.799999 230.8 14.5L231.3 25.5L217.1 25.4L202.9 25.2L200 20.6C196.7 15.5 189.8 10.6 183.5 8.9C181.3 8.3 174.8 8 169 8.2C153.3 8.8 145 13.3 139.4 24.3L137 29H129.2C115.8 29 105.2 32.8 97.9 40.1C91.8 46.2 89.7 51.9 87.5 69C87.2 71.5 86.3 77.3 85.5 82C84.7 86.7 84 90.8 84 91.1C84 91.4 68.4 86.3 49.3 79.8C30.3 73.3 14.4 68.2 14.2 68.5C13.4 69.3 17.1 79.4 21.2 87.2C25.8 96 35.8 107 43.3 111.4C50.8 115.7 61.7 119 70.5 119.7L78.6 120.3L78.5 131.4C78.5 144.3 80.1 150.5 85.8 159.8C89 165.1 94.3 170.4 98.9 172.9C100 173.6 99.8 174.8 97.9 179.6C95.9 184.8 95.6 187.7 95.2 203.3L94.8 221L79.2 221.2C42.8 221.6 20.1 221.5 15.8 220.9Z" fill="#523131"/>
<path d="M8.89454 -12.9351L8.90277 -12.939L14.2896 -15.5H109.6C114.667 -15.5 119.483 -15.5008 124.06 -15.5017C168.587 -15.5095 190.579 -15.5133 202.37 -14.6959C208.895 -14.2436 211.818 -13.5587 213.589 -12.7419C214.959 -12.1104 215.714 -11.4113 217.186 -10.0476C217.608 -9.65707 218.088 -9.21203 218.659 -8.69847L218.661 -8.6966C221.805 -5.87162 223.724 -3.28779 224.993 0.0356274C226.303 3.46957 227.009 7.92243 227.303 14.6531L227.304 14.6589L227.636 21.9741L217.149 21.9003L217.125 21.9001L204.848 21.7271L202.961 18.7334L202.95 18.716L202.939 18.6986C199.135 12.8201 191.486 7.43127 184.416 5.52211C182.897 5.1087 180.363 4.87761 177.766 4.75396C175.045 4.62438 171.874 4.5988 168.879 4.70205L168.866 4.70255C160.748 5.0128 154.143 6.33893 148.741 9.27489C143.257 12.2555 139.332 16.7204 136.282 22.7104C136.282 22.711 136.281 22.7115 136.281 22.7121L134.857 25.5H129.2C115.145 25.5 103.552 29.4978 95.4251 37.6251C92.0633 40.987 89.706 44.3633 87.9457 49.2358C86.2427 53.9499 85.1316 59.9804 84.0286 68.5534L84.0267 68.5682L84.0249 68.583C83.7359 70.9919 82.8484 76.72 82.0496 81.4127L81.9561 81.962C81.663 83.6843 81.3858 85.3123 81.1561 86.6785C79.5247 86.1696 77.4082 85.491 74.8975 84.6724C68.6292 82.6287 59.9698 79.7339 50.4288 76.487C40.9154 73.2324 32.1709 70.3259 25.7715 68.268C22.575 67.2401 19.9449 66.418 18.0904 65.869C17.1703 65.5966 16.4028 65.38 15.8397 65.2384C15.5709 65.1709 15.2747 65.1014 15.0052 65.0556C14.8894 65.0359 14.6477 64.9971 14.3649 64.989C14.2386 64.9854 13.9336 64.981 13.5598 65.0529L13.5484 65.055C13.3678 65.0892 12.3472 65.2822 11.5465 66.2168C10.8256 67.0467 10.6763 67.9619 10.632 68.2973C10.5689 68.7738 10.589 69.2109 10.6166 69.5223C10.6733 70.1615 10.8194 70.8592 10.9863 71.5198C11.3287 72.875 11.8924 74.5887 12.5816 76.4439C13.9662 80.1705 15.9751 84.7819 18.1 88.8249C20.5774 93.5632 24.4257 98.7568 28.5764 103.308C32.7106 107.842 37.3568 111.971 41.529 114.419L41.544 114.428L41.5592 114.436C49.5258 119.004 60.9286 122.45 70.2225 123.189L70.232 123.19L70.2415 123.19L75.0706 123.548L75.0002 131.368L75 131.384V131.4C75 137.974 75.4043 143.085 76.6229 147.822C77.8495 152.591 79.8517 156.791 82.8099 161.619C85.9632 166.838 90.9885 172.097 95.8149 175.144C95.7798 175.255 95.7401 175.377 95.6954 175.51C95.4563 176.22 95.1143 177.128 94.6457 178.312L94.6394 178.328L94.6333 178.344C92.382 184.197 92.0987 187.706 91.7011 203.21L91.7009 203.221L91.3772 217.544L79.1616 217.7C79.1605 217.7 79.1594 217.7 79.1583 217.7C60.9678 217.9 46.2144 217.975 35.4788 217.925C24.6039 217.875 18.1559 217.693 16.2905 217.435C7.00022 216.106 -0.601321 210.385 -4.61684 201.645C-4.61766 201.643 -4.61847 201.641 -4.61929 201.639L-6.79527 196.852L-6.20006 101.123C-6.20006 101.122 -6.20006 101.122 -6.20006 101.122C-6.17473 97.2429 -6.1507 93.5122 -6.12759 89.9238C-5.83082 43.8416 -5.68508 21.2113 -4.87051 9.1993C-4.42923 2.69194 -3.80905 -0.263727 -3.07716 -2.03138C-2.5175 -3.38306 -1.91376 -4.08202 -0.681124 -5.50908C-0.37208 -5.86687 -0.0235043 -6.27043 0.373821 -6.74152C2.17671 -8.87107 5.63111 -11.3941 8.89454 -12.9351Z" stroke="#895D5D" stroke-opacity="0.52" stroke-width="7"/>
<path d="M117.8 223.2L99 223V205.2C99 187.8 99.7 182.8 102.8 176.1L104.4 172.7L113 173.3L121.6 173.9L142.5 195C160.9 213.4 163.5 216.5 163.8 219.5C164 221.4 163.8 223 163.3 223.1C159.4 223.3 132.9 223.4 117.8 223.2Z" fill="#F8E879"/>
<path d="M186 220.2C186 217.5 188.4 213.9 199.8 199.2C207.4 189.5 215.8 178.6 218.4 175C223.3 168.4 225 167.3 230.8 167.1L234.1 167L233.9 185.2C233.7 202.2 233.5 203.6 231.2 208.2C227.9 214.8 220.6 220.5 213.7 221.9C210.9 222.5 203.4 223.1 197.3 223.3L186 223.5V220.2Z" fill="#F8E879"/>
<path d="M158 222C158 221.5 158.7 221 159.6 221C160.5 221 161 220.6 160.8 220C160.3 218.5 118.7 177 117.7 177C117.2 177 117 176.2 117.2 175.2C117.5 173.8 118.8 173.4 123.8 173.2L130 172.9V177C130 181 130.6 181.8 141.5 192.9C147.8 199.4 153 205.2 153 205.8C153 206.5 153.7 207 154.5 207C155.3 207 156 207.7 156 208.5C156 209.3 156.6 210 157.3 210C159.2 210 162 213.3 162 215.3C162 216.2 162.7 217 163.5 217C164.5 217 165 218 165 220C165 222.8 164.7 223 161.5 223C159.6 223 158 222.6 158 222Z" fill="#DABE49"/>
<path d="M185 220C185 218.4 185.5 217 186 217C186.6 217 187 216.3 187 215.5C187 214.6 187.7 213.7 188.5 213.4C189.3 213 190 212.4 190 211.9C190 211.3 193.4 206.6 197.5 201.2C216.7 176.4 216.3 177.1 216.4 172.1L216.5 167.5H222.5C227.4 167.5 228.5 167.8 228.8 169.2C229 170.3 228.5 171 227.7 171C226.9 171 225.1 172.7 223.8 174.8C222.4 176.8 214 187.8 205.1 199.2C196.3 210.6 189 220.2 189 220.5C189 220.8 189.7 221 190.5 221C191.3 221 192 221.5 192 222C192 222.6 190.4 223 188.5 223C185.3 223 185 222.8 185 220Z" fill="#DABE49"/>
<path d="M92.2 203.8C92.7 186.7 93 183.8 95.1 178C97.2 172.2 97.8 171.5 100.4 171.2C105.6 170.6 110 171.9 110 174C110 175.1 109.4 176 108.6 176C107.1 176 104.8 180.4 103.1 186.5C102.5 188.7 102 197.4 102 205.8C102 218.6 102.2 221 103.5 221C104.3 221 105 221.5 105 222C105 222.6 102.1 223 98.4 223H91.7L92.2 203.8Z" fill="#DABE49"/>
<path d="M157.5 222.1C157.2 221.6 158.2 221 159.7 220.8C162.2 220.5 161.2 219.3 145.9 203.7C128.6 186 125.7 182.1 126.6 178.3C127.1 176.6 126.8 176 125.6 176C124.7 176 124 175.6 124 175C124 174.5 125.6 174 127.6 174C131 174 132.6 175.4 152.6 195.8C169.9 213.4 174 218 174 220.3V223H166.1C161.7 223 157.9 222.6 157.5 222.1Z" fill="#EEC95F"/>
<path d="M178 219.5C178 216.7 179.2 214.5 183.8 208.7C186.9 204.8 191.5 199 193.8 196C216.1 167.3 216.4 167 219.3 167C220.9 167 222.8 167.7 223.6 168.5C225 169.8 224.9 170 222.6 170C221.2 170 219.8 170.5 219.5 171C219.2 171.6 219.5 172 220.3 172C224 172 219.6 180.1 208.4 194C205.6 197.6 199.8 205 195.6 210.5C188.4 220.1 188.2 220.5 190.6 220.8C195.6 221.5 191.7 223 184.9 223H178V219.5Z" fill="#EEC95F"/>
<path d="M166 187.1C158.8 184.8 153.1 180.2 151 174.9L149.8 172.2L140.1 175.5C132.3 178.1 129.9 178.5 128.4 177.6C127.4 177 122.7 176.5 118 176.5C113.3 176.4 110 176.5 110 176.5C107.5 176.5 105 176.5 103 176.5C99.5 176.5 98.9 177 95.3 174.7C89.7 171.2 83.2 163.6 80.5 157.7C77.2 150.2 76 143.2 76 132V122H70.2C59.3 122 46.3 117.7 36.2 110.8C25.6 103.5 13.3 83.6 12.3 72L11.7 66H15C16.8 66 28.9 69.6 41.9 74.1C54.9 78.5 69.2 83.4 73.7 84.9L81.9 87.7L82.4 84.1C87.9 46.8 89.6 41.6 98.5 34.9C105.3 29.7 111.7 27.8 124.2 27.2L134.9 26.8L136 23.5C136.6 21.8 138.7 18.4 140.6 16.1C147.1 8.6 157 5 171.6 5C186.7 5 196.6 9.1 202.1 17.8L205.1 22.5L217.8 23L230.5 23.5L230.8 51.7L231 79.8L223.5 80.5L216 81.2V84.4C216 86.8 214.9 88.5 211.4 91.9C205 98.1 202.6 103.2 202.6 110.5C202.6 114.3 203.2 117.7 204.3 119.8C209.1 128.7 219.3 136 227.3 136H231L230.8 153.3L230.5 170.5L224.7 170.2C220.4 170 218.8 170.2 218.4 171.3C218 172.5 217.2 172.6 213.7 171.5C204.2 168.7 204.3 168.7 203.6 172.2C202.6 177.2 198.2 182 192.1 184.8C187.6 186.9 184.7 187.5 177.5 187.7C172.6 187.8 167.4 187.6 166 187.1ZM133.5 138.6C140.2 135.5 146.6 128.2 148.6 121.5C150.3 115.5 149.3 108.9 145.9 103.3C143.5 99.4 135.3 92 133.4 92C132.5 92 132 90.8 132 88.9V85.7L125.3 86.2C112.9 87.2 102.5 93.9 96 105.3C92.5 111.4 92.4 112 94.9 112C96.3 112 96.9 113 97.4 116.1C98.9 125.6 105.7 134.6 114.5 138.6C120.9 141.7 127.1 141.7 133.5 138.6ZM182.2 119C185.4 116.1 185.4 115.9 183.6 114.5C181 112.5 173.9 112.6 169.2 114.6L165.5 116.1L168.8 119.1C173.2 123.1 177.8 123 182.2 119Z" fill="#FEA8A8"/>
<path d="M178 186.7C178 186 180.8 184.5 184.3 183.4C187.7 182.3 191.3 181 192.3 180.6C193.7 179.9 194 180.3 194 182.4C194 184.6 193.3 185.1 188.8 186.5C182.5 188.3 178 188.4 178 186.7Z" fill="#CD5252"/>
<path d="M161.3 185.8C160 185.2 159 184.3 159 183.8C159 183.4 158.6 183 158 183C156.5 183 153 179.7 153 178.3C153 177.6 152.6 177 152 177C151.5 177 150.8 175.9 150.4 174.5C149.8 172.2 147 170.8 147 172.8C147 173.9 140.1 176 136.6 176C131.7 176 134 173.5 141.3 170.9C145.2 169.5 149.3 168 150.2 167.6C151.5 167 152.3 167.8 153.8 171.2C156.3 176.7 160 180.4 165.6 182.7C168 183.7 170 185.1 170 185.8C170 187.3 164.4 187.3 161.3 185.8Z" fill="#CD5252"/>
<path d="M164.1 173.4C160.6 170.4 159.9 168.1 163.2 170.4C166.2 172.6 171 172.4 174 170C176.6 168 179 167.4 179 168.8C179 170 183.6 172 186.2 172C187.3 172 189.9 171 191.9 169.8L195.5 167.6L193.9 170C193 171.4 190.8 173.4 189 174.4C186.1 176.1 185.2 176.2 181.1 175.1C177.7 174.3 175.6 174.2 173.6 175C169.4 176.6 167.4 176.2 164.1 173.4Z" fill="#CD5252"/>
<path d="M200.4 169.5C201 167 201.9 165 202.5 165C203 165 207.2 166 211.8 167.2C219.2 169.1 219.9 169.5 218.6 170.8C217.3 172.1 216.3 172.2 211.6 171.1C205.8 169.8 204 170.1 204 172.6C204 173.4 203 174 201.7 174C199.4 174 199.4 173.8 200.4 169.5Z" fill="#CD5252"/>
<path d="M139 159C139 158.5 141 156.2 143.4 154C148.4 149.4 151.5 143.6 153.4 135.2C154.9 128.5 157.6 126.5 156.8 132.8C156.2 136.6 156.4 136.8 159.2 137.4C163.9 138.3 163.9 138.3 166 133.6C167.8 129.4 169.6 127.3 170.6 128.3C170.8 128.5 170.1 130.8 169 133.4C167.9 136 167 138.3 167 138.5C167 138.9 173.9 143 174.6 143C175.2 143 175.1 128.4 174.4 126.6C174.1 125.7 172.7 125 171.4 125C167.8 125 161.8 119.3 162.2 116.1C162.6 112.2 168.7 109.6 177.1 109.6C185 109.6 189 111.6 189 115.6C189 118.8 183.1 125 180.1 125C178.1 125 178 125.5 178.1 132.8C178.2 137 178.5 141.5 178.8 142.7C179.5 144.9 179.5 144.9 183.3 141.7L187.1 138.5L184.5 134.8C181.8 130.9 181.4 129 183 129C183.6 129 185.3 131 186.8 133.5C188.9 137 190 137.9 191.5 137.5C192.6 137.2 194.5 137 195.7 137C197.9 137 197.9 136.9 196.5 132.9C194.7 128 194.7 128 196.1 128C196.6 128 197.8 129.7 198.6 131.8C203.6 144 208.5 150.7 214 153C216.7 154.1 218.2 157 216.1 157C213.7 157 205.2 149.9 202.1 145.3C199.5 141.4 197.9 140 196.3 140C192.9 140 187.4 142.5 183.2 146C181.2 147.6 179 149 178.3 149C177.5 149 174.5 147.3 171.4 145.3C167.3 142.6 164.6 141.5 160.6 141.2L155.2 140.8L153.2 145.4C150.2 152.1 139 162.9 139 159Z" fill="#CD5252"/>
<path d="M172.2 155.5C169.1 154.2 167.1 151.5 168.3 150.4C168.6 150.1 170.2 150.6 171.9 151.4C175.9 153.5 178.3 153.4 183 151C186.8 149.1 187 149 187 150.8C187 152.8 180.4 157 177.4 157C176.3 156.9 174 156.3 172.2 155.5Z" fill="#CD5252"/>
<path d="M117.7 143.9C105.7 141 96.3 131 94.4 119.1C93.8 115.6 93.6 115.2 92.6 116.6C90.7 119.1 87.4 117.9 87.8 115C88.2 110.3 95 98.2 99.8 93.5C106.5 86.7 113.3 83.9 125.3 83C133.6 82.3 135.9 81.7 139.8 79.3C145.2 76 149.3 69.4 151 61.3C152.1 56.1 153.9 54.3 155.9 56.3C157.5 57.9 157.3 59.8 155 67.3C152.5 75.3 146.1 82.9 139.5 85.7C135.1 87.5 133.7 89 136.4 89C138.8 89 147.7 97.8 149.9 102.3C152.9 108.5 153.6 117.4 151.6 124.2C147.7 137.9 131.5 147.3 117.7 143.9ZM110.7 113.8C110.5 112 110.3 113.4 110.3 117C110.3 120.6 110.5 122 110.7 120.3C110.9 118.5 110.9 115.5 110.7 113.8ZM136.9 118.7C136.8 116.9 136.4 114.4 136 113C135.4 111.1 135.2 112.1 135.1 116.8C135 120.8 135.4 122.9 136 122.5C136.6 122.2 137 120.4 136.9 118.7ZM124.8 102.3C123.8 102.1 122 102.1 120.8 102.3C119.5 102.5 120.3 102.7 122.5 102.7C124.7 102.8 125.7 102.6 124.8 102.3Z" fill="#CD5252"/>
<path d="M224.5 139C217.1 138.2 211.5 135.3 206.7 130.1C199.8 122.4 197.3 113.9 199.4 104.9C201.1 97.6 203.1 94.1 208.5 88.7L213.2 84.1L209.3 83.4C199.3 81.6 190.1 73.6 186.1 63.4C184.5 59.1 184.2 57.4 185.1 56.4C187 54 187.8 54.8 191.6 62.5C197.8 75.3 203.5 78.6 217.8 77.7C223.5 77.3 227 77.4 227 78C227 78.6 227.9 79 229 79C230.9 79 231 79.7 231 89.9V100.7L227.8 101.8L224.5 102.8L227.8 102.9L231 103V121.5C231 131.7 230.9 139.9 230.8 139.9C230.6 139.8 227.8 139.4 224.5 139ZM215.9 116.8C215.8 111.2 215.7 110.9 215 114C214.2 117.1 214.7 123 215.6 123C215.8 123 216 120.2 215.9 116.8Z" fill="#CD5252"/>
<path d="M71.3 111.5C65.7 109.1 64 104.6 66.4 98.9C67 97.5 64.3 96.3 50.1 91.4C40.7 88.1 33 85 33 84.3C33 82.9 33 82.9 55 90.5C64.1 93.6 74 97 77 97.9C79.9 98.9 82.6 100.2 82.8 100.9C83.3 102.5 81.2 102.3 75.4 100.1C69.5 97.8 68 98.5 68 103.6C68 107.8 71 110 76.7 110C79.9 110 81 110.4 81 111.5C81 113.4 75.7 113.4 71.3 111.5Z" fill="#CD5252"/>
<path d="M129 74.6C129 74.4 131.4 72.8 134.4 71.1C137.4 69.4 141.3 66.3 143.1 64C146.7 59.5 147.6 59.4 146 63.6C144.4 67.7 141.2 71 136.5 73.1C132.8 74.8 129 75.6 129 74.6Z" fill="#CD5252"/>
<path d="M207.4 72.6C202.3 70.2 198 65.2 198 61.5C198 60.3 199.4 61.4 202.4 64.7C204.9 67.4 208.7 70.5 210.9 71.5C214.9 73.2 216.3 75 213.8 75C213.1 75 210.2 73.9 207.4 72.6Z" fill="#CD5252"/>
<path d="M98.8 68.1C100.6 63.2 106.2 57 110.9 54.6C116.7 51.6 123.1 50.4 125.5 51.7C126.9 52.5 126.4 52.8 123 53.4C116.6 54.4 109.1 58.7 103.3 64.6C100.4 67.6 98.4 69.2 98.8 68.1Z" fill="#CD5252"/>
<path d="M102.7 50.9C106.1 45 114.1 41.2 119.9 42.7C121.9 43.2 121.5 43.5 116.9 45C111.4 46.7 103 51.6 103 53.1C103 53.6 102.5 54 101.9 54C101.3 54 101.6 52.7 102.7 50.9Z" fill="#CD5252"/>
<path d="M144 51.1C144 49.7 150.6 45.5 155.1 44.1C158.1 43.1 159.8 43.3 165 44.9C171.2 46.9 171.3 46.9 175.1 44.9C182 41.4 193 42.7 197.1 47.6C198.2 48.9 197.6 48.8 194.1 47C188.6 44.2 183.2 44.6 176 48.4C171.4 50.8 170.7 50.9 168.2 49.6C160.1 45.4 152.3 45.6 146.6 50.1C145.2 51.2 144 51.7 144 51.1Z" fill="#CD5252"/>
<path d="M226 50.5C224.1 49.8 220.3 49.1 217.7 49.1C214.8 49 213.1 48.6 213.5 48C214.2 46.9 223 46.7 227.9 47.6C230 48.1 231 48.8 231 50.1C231 52.3 230.7 52.3 226 50.5Z" fill="#CD5252"/>
<path d="M227 40.5C225.1 39.8 222.5 39.1 221.2 39.1C219.8 39 219.2 38.6 219.5 38C219.9 37.4 222.6 37 225.6 37.1C230.5 37.3 231 37.5 231 39.7C231 41 230.9 42 230.8 41.9C230.6 41.9 228.9 41.2 227 40.5Z" fill="#CD5252"/>
<path d="M144.5 38C148.7 33.1 158.5 31.5 165.7 34.5C169 35.9 169.6 35.9 173.4 34.1C179.9 31 184.5 30.5 189.4 32.4C191.8 33.3 194.6 35 195.6 36.1C197.3 38 197.2 38 192.5 35.9C186.6 33.3 180.8 33.8 174.2 37.5L169.8 40L165.1 37.9C158.6 35 151.3 35 146.4 38L142.5 40.4L144.5 38Z" fill="#CD5252"/>
<path d="M182 213.6C182 210.3 182.2 210 185.1 210H188.1L186 213C182.9 217.4 182 217.5 182 213.6Z" fill="#8F3030"/>
<path d="M152.1 201.5L148.8 198H152.4C155.8 198 156 198.2 156 201.5C156 203.4 155.9 205 155.7 205C155.6 205 154 203.4 152.1 201.5Z" fill="#8F3030"/>
<path d="M199 191.4C199 188.7 199.5 187.7 201 187.3C202.1 187 203 185.9 203 184.9C203 183.7 203.7 183 205 183C206.5 183 207 182.3 207 180.5C207 178.4 207.5 178 210.1 178C212.5 178 213 178.3 212.3 179.3C206.5 186.8 199.8 195 199.5 195C199.2 195 199 193.4 199 191.4Z" fill="#8F3030"/>
<path d="M133.6 182.6C129.9 179.1 127.2 176 127.7 175.7C128.1 175.5 132.3 174 137 172.6C141.7 171.1 146.9 169.4 148.5 168.7C151.5 167.4 151.5 167.4 154 172.4C157 178.4 163.6 183.4 169.9 184.4C175.2 185.2 175.7 188 170.5 188C168.6 188 167 187.6 167 187C167 186.5 165.4 186 163.5 186C161.6 186 160 185.6 160 185C160 184.5 159.3 184 158.5 184C157.6 184 157 183.1 157 181.5C157 179.5 156.5 179 154.5 179C152.4 179 152 178.5 152 176C152 172.4 151.9 172.4 142.7 175.1C135.6 177.2 135.4 177.4 135.8 180.1C136.1 182.4 136.8 183 138.6 183C140.6 183 141 183.5 141 186C141 187.7 140.8 189 140.6 189C140.4 189 137.3 186.1 133.6 182.6Z" fill="#8F3030"/>
<path d="M183 185.7C183 184.9 184.8 183.8 187.1 183.1C192.4 181.5 199.5 174.4 201.1 169.1C202 166.1 202.8 165.1 203.9 165.4C204.8 165.7 207.6 166.4 210.3 167.1C213.3 167.8 215 168.8 215 169.7C215 170.9 214 171.2 210.2 170.8C205 170.3 203.4 171.2 202.8 175.1C202.6 177 201.8 177.6 199.3 177.8C196.4 178.1 196 178.5 196 181.1C196 183.7 195.7 184 193 184C191 184 190 184.5 190 185.5C190 186.5 188.9 187 186.5 187C184.2 187 183 186.5 183 185.7Z" fill="#8F3030"/>
<path d="M164.7 173.4C163.1 172.5 162.1 171.6 162.3 171.3C162.6 171 163.9 171.5 165.2 172.4C167.8 174.3 171.7 174.5 172.2 172.8C172.5 172.1 173.1 172 174 172.5C175.1 173.2 175 173.5 173.4 174.1C170.4 175.3 167.8 175.1 164.7 173.4Z" fill="#8F3030"/>
<path d="M180.5 174C180.1 173.4 181 173.3 182.9 173.6C185 174.1 186.9 173.6 189.4 172C191.4 170.8 193 170.1 193 170.4C193 170.8 191.5 171.9 189.8 173C186.3 175.1 181.5 175.6 180.5 174Z" fill="#8F3030"/>
<path d="M216 171C216 169.7 216.7 169 218 169C219.8 169 219.9 169.2 218.8 171C218.1 172.1 217.2 173 216.8 173C216.3 173 216 172.1 216 171Z" fill="#8F3030"/>
<path d="M143.4 154.9C146 152.6 149.2 148.7 150.5 146.1C151.8 143.6 152.9 142.2 153 143.1C153 145.4 147.2 153.7 143.5 156.5C138.4 160.5 138.3 159.4 143.4 154.9Z" fill="#8F3030"/>
<path d="M210.9 153.1C206.9 150.6 200 142.2 200 139.8C200 139.4 199 139 197.8 138.9C195.6 138.9 195.6 138.8 197.5 138.1C199.2 137.4 199.9 138.1 202.2 141.9C205.1 147.1 210 152 214.5 154.3C216.2 155.2 217 155.9 216.4 156C215.9 156 213.4 154.7 210.9 153.1Z" fill="#8F3030"/>
<path d="M171 143.9C168.5 142.3 167.3 141 168.3 141C169.2 141 171.4 142.3 173.2 144C177.3 147.7 176.7 147.7 171 143.9Z" fill="#8F3030"/>
<path d="M180.5 145.8C180.8 145 182.5 143.6 184.2 142.6C188 140.3 187.1 142.1 183 145C181.2 146.3 180.2 146.6 180.5 145.8Z" fill="#8F3030"/>
<path d="M189 140C189.8 139.5 191.6 139 192.9 139C196.1 139 195.3 139.6 191 140.4C188.5 140.8 187.9 140.7 189 140Z" fill="#8F3030"/>
<path d="M157.3 139.3C158.2 139.1 159.8 139.1 160.8 139.3C161.7 139.6 160.9 139.8 159 139.8C157.1 139.8 156.3 139.6 157.3 139.3Z" fill="#8F3030"/>
<path d="M185.5 135.3C182.8 131.3 182.1 128.2 184.6 131.5C186.6 134.1 189.2 139 188.6 139C188.3 139 186.9 137.3 185.5 135.3Z" fill="#8F3030"/>
<path d="M197.1 132.9C196.5 131.1 196.2 129.5 196.4 129.3C196.6 129.1 197.3 130.3 197.9 132.1C198.5 133.9 198.8 135.5 198.6 135.7C198.4 135.9 197.7 134.7 197.1 132.9Z" fill="#8F3030"/>
<path d="M107.7 127.3C106.4 126.1 107 123 108.5 123C109.7 123 110 121.7 110 117.5C110 113.3 109.7 112 108.5 112C104.9 112 108.3 104.2 113.2 101.2C120.3 96.9 128.2 97.6 134.5 103.1C138.5 106.6 140 111.1 140 119.2C140 126.5 136.7 130.3 133.2 126.8C131.3 124.9 131.7 122 134 122C135.7 122 136 121.3 136 117.6C136 113.9 135.7 113.3 134.2 113.6C133 114 132.2 113.2 131.4 111.2C130.7 109.5 129 107.7 127.1 106.9C125.3 106.1 124 104.8 124 103.8C124 102.8 123.6 102 123 102C122.5 102 122 102.9 122 104C122 105.1 121.4 106 120.6 106C119.9 106 118.1 106.9 116.6 108.1C114.2 110 114 110.7 114 117.9C114 122.5 113.5 126.1 112.8 126.8C111.5 128.1 108.7 128.4 107.7 127.3Z" fill="#8F3030"/>
<path d="M212.2 126.3C210.8 122.8 211.5 109.6 213.4 106.2C216.5 100.3 231 95.2 231 100C231 101.3 230.3 102 229 102C227.7 102 227 102.7 227 104C227 105.1 226.4 106 225.6 106C224.9 106 223.1 106.9 221.6 108.1C219.2 110 219 110.7 219 117.9C219 122.5 218.5 126.1 217.8 126.8C216 128.6 213 128.3 212.2 126.3Z" fill="#8F3030"/>
<path d="M167.2 123C163.7 120.9 163.5 119.4 166.3 117.6C168.6 116.1 171.3 118.9 170.8 122.4L170.5 125L167.2 123Z" fill="#8F3030"/>
<path d="M180 122.1C180 118.6 181.2 117 183.6 117C187.1 117 187.8 119.9 184.9 122.1C181.8 124.5 180 124.5 180 122.1Z" fill="#8F3030"/>
<path d="M88.5 117C87.5 115.4 89.8 108.8 93.5 102.5C100.5 90.5 110.9 84 122.9 84C137.7 84 147.3 77.1 150.6 64C151.7 60 153.1 56.5 153.9 56.2C155.5 55.6 157.1 57.9 156.6 60C153.1 73.5 148.9 80.1 141.1 84.3C136.9 86.6 133.9 87.4 125.9 88.1C120.1 88.6 114.2 89.7 111.7 90.8C105.7 93.5 98.4 101.8 94.5 110.5C91.2 117.7 89.8 119.2 88.5 117Z" fill="#8F3030"/>
<path d="M69.1 109.4C65.8 106.7 65 102.7 67 99C68.1 96.9 69.4 97.4 50 90.9C42 88.2 34.9 85.7 34.1 85.4C33.3 85.2 33 84.7 33.2 84.4C33.5 84.1 41.8 86.6 51.6 90C61.5 93.4 72.3 97.1 75.8 98.3C79.3 99.5 81.7 100.6 81 100.8C80.4 101 78.1 100.5 75.9 99.6C73.8 98.7 71.3 98 70.5 98C68.4 98 66.6 102.3 67.4 105.4C68.2 108.5 71 110.2 77 111.1L81.5 111.7L76.8 111.9C73.1 112 71.5 111.5 69.1 109.4Z" fill="#8F3030"/>
<path d="M209.9 83C203.5 81.9 198.3 79.3 193.9 74.9C190 71 184.7 60.9 185.2 58.3C185.9 54.6 188.1 56.2 191 62.3C194.8 70.4 199.9 75.5 206.3 77.6C211.2 79.2 212.4 79.2 226.3 77.4C230.8 76.8 231 76.8 231 79.2C231 81.6 230.6 81.7 224.1 82.4C220.3 82.7 216.6 83.2 215.8 83.4C215.1 83.6 212.4 83.4 209.9 83Z" fill="#8F3030"/>
<path d="M157.5 46L152.5 45.3L157 45.2C159.5 45.1 162.2 45.5 163 46C163.8 46.5 164.1 46.9 163.5 46.8C163 46.7 160.3 46.4 157.5 46Z" fill="#8F3030"/>
<path d="M181 214.7C181 212.1 181.4 211 182.5 211C183.3 211 184 210.1 184 209C184 207.9 184.7 206.7 185.5 206.4C186.3 206 187 205.2 187 204.5C187 202.5 189.7 200.8 192.4 201.2C195 201.5 194.9 201.6 189.4 208.5C181 219.1 181 219.1 181 214.7Z" fill="#541818"/>
<path d="M155.6 204.9C144.5 193.4 143.8 192.5 146.2 192.2C149 191.9 154 195.4 154 197.7C154 198.4 154.6 199 155.3 199C156 199 159.2 201.7 162.4 205C167.3 210 168.1 211.4 167.8 214.1C167.5 217.2 167.4 217.1 155.6 204.9Z" fill="#541818"/>
<path d="M195 196.6C195 193.3 195.2 193 198.1 193H201.1L199 196C195.9 200.4 195 200.5 195 196.6Z" fill="#541818"/>
<path d="M202 187.6C202 184.3 202.2 184 205.1 184H208.1L206 187C202.9 191.4 202 191.5 202 187.6Z" fill="#541818"/>
<path d="M163.8 187.3C162.8 187.1 162 186.4 162 185.9C162 185.4 161.1 185 160 185C158.9 185 158 184.6 158 184.1C158 183.6 157.1 183 155.9 182.7C154.8 182.4 153.6 181.2 153.3 180.1C153 178.9 152.4 178 152 178C151.6 178 150.8 176.9 150.2 175.5C149.1 173.2 146 171.9 146 173.8C146 174.6 143.2 175.6 136 177.6L133.5 178.3L135.8 179.1C137.4 179.7 138 180.7 138 183.1C138 185.9 137.8 186.1 136.3 184.9C134 183.1 128 176.7 128 175.9C128 175.6 130.4 174.8 133.3 174.1C136.1 173.4 141.3 171.7 144.8 170.3C148.3 168.9 151.3 168 151.4 168.2C151.6 168.3 152.7 170.4 153.8 172.7C156.6 178.2 162.2 182.6 168.2 184C174.1 185.5 174.9 188.1 169.3 187.9C167.2 187.8 164.7 187.6 163.8 187.3Z" fill="#541818"/>
<path d="M179 186.7C179 185.6 180.3 184.9 182.8 184.4C191.2 182.9 199.1 176.4 201.2 169.3C202.1 166 202.8 165.1 204 165.6C204.8 166 208.4 166.9 212 167.7C215.5 168.5 218.6 169.3 218.9 169.5C219.4 170 217.1 173.5 213.1 178L210.1 181.5L210 177.8C210 175.1 210.4 174 211.5 174C214.4 174 213 172.2 209.5 171.6C207.6 171.2 206 170.5 206 170C206 169.4 205.6 169 205 169C204.5 169 204 170.4 204 172C204 173.7 203.6 175 203 175C202.5 175 202 175.8 202 176.8C202 181.1 192.7 186.9 184.4 187.7C179.9 188.2 179 188 179 186.7Z" fill="#541818"/>
<path d="M108.2 126.8C106.4 125 106.6 110.6 108.5 107C110.6 103 115.1 100.1 120.3 99.4C126.1 98.6 130.9 100.2 135.1 104.6C138.5 108.1 138.5 108.2 138.5 117.3C138.5 126.2 138.4 126.5 136.1 126.8C132.8 127.3 132 125.6 132 117.4C132 111.3 131.7 110 129.7 108.2C126.2 104.9 118.7 105.1 115.5 108.6C113.3 110.9 113 112.2 113 118.4C113 124.9 112 128 110 128C109.7 128 108.9 127.5 108.2 126.8Z" fill="#541818"/>
<path d="M213.7 126.9C211.1 125.4 211.3 110.7 214 106.2C216.3 102.5 222.8 99.1 227.8 99C230.8 99 231 99.2 231 102.5C231 105.9 230.9 106 227 106C223.9 106 222.3 106.6 220.5 108.6C218.3 110.9 218 112.2 218 118.5C218 126.3 216.8 128.6 213.7 126.9Z" fill="#541818"/>
<path d="M167 122.2C164.6 120.3 164.9 118 167.5 118C168.9 118 171 120.9 171 122.9C171 124.5 169.5 124.2 167 122.2Z" fill="#541818"/>
<path d="M180.9 120.3C181.8 117.1 184.7 116 185.7 118.6C186.1 119.7 185.6 120.8 184.5 121.6C181.4 123.9 180.1 123.4 180.9 120.3Z" fill="#541818"/>
<path d="M150.4 199.2C138.8 187.3 129.1 177.1 129 176.5C128.8 176 130.9 175 133.6 174.4C136.3 173.8 141.4 172.1 144.9 170.6C148.4 169.2 151.4 168.1 151.4 168.3C151.5 168.4 152.5 170.4 153.7 172.8L155.8 177H153C151.4 177 150 176.3 149.6 175.5C149 173.8 144 173.4 144 175C144 175.6 142.8 176 141.4 176C138.8 176 136 178 136 179.9C136 181.4 140 181.2 143 179.5C144.4 178.7 147.4 178.1 149.6 178C153.4 178 153.9 178.3 155.1 181.3C155.8 183 158.3 186.4 160.6 188.7C168.1 196.1 179.8 196.8 189.1 190.2C193.4 187.2 193.9 186 191 186C189.9 186 189 186.5 189 187C189 187.6 187.2 188 185 188C179.4 188 179.8 185.8 185.8 183.9C188.4 183 191.3 182 192.2 181.6C193.4 181 193.9 181.4 194.2 183.2C194.4 185.1 194.9 184.8 196.8 180.8C199 176 199.1 176 203.9 176C208.3 176 209 175.7 211.1 172.5C213.5 169 214.5 168.5 217.4 169.6C219 170.2 217.4 172.5 200 194.5C196.1 199.5 189.9 207.4 186.2 212.3C179.7 220.7 179.4 221 175.5 220.9C171.6 220.9 170.9 220.2 150.4 199.2Z" fill="#2D1E12"/>
<path d="M161.3 186.8C159.7 186 159 184.8 159 183V180.3L163.7 182.6C166.2 183.9 168.9 185 169.7 185C170.4 185 171 185.7 171 186.5C171 188.3 164.8 188.5 161.3 186.8Z" fill="#2D1E12"/>
<path d="M166 196.9C160.9 195.3 156.4 191.6 153.3 186.2C151.9 183.6 150.5 181.3 150.4 181.1C150.2 180.9 147.8 181.7 145.1 182.9C142.4 184 139.4 185 138.4 185C137.5 185 135 183.1 132.8 180.8C129.3 177.1 129 176.5 130.7 175.9C131.7 175.5 136.4 173.8 141.1 172.1C150.6 168.7 152 168.4 152 170.2C152 172.6 157.4 179.1 161.8 182C166 184.8 167 185 175.7 185C183.1 185 185.9 184.6 189.5 182.9C195 180.3 199.5 175.3 201.1 170C201.8 167.8 202.7 166 203.3 166C203.8 166 207.3 166.9 211.1 168.1C218.6 170.4 218.5 170.1 213.6 176.3C210.7 180 210.3 180.1 206.3 179.5L202.1 178.9L199.9 183.4C197.4 188.8 193.1 193.3 188.1 195.6C183.8 197.7 171 198.4 166 196.9Z" fill="#180A0A"/>
</g>
<defs>
<clipPath id="clip0_2_235">
<rect width="229" height="219" rx="35" fill="white"/>
</clipPath>
</defs>
</svg>
